<svg xmlns="http://www.w3.org/2000/svg"  viewBox="0 0 64 64" width="48px" height="48px"><path d="M38.38 34.65l14.75 14.72c-.91.42-1.97.63-3.2.63H14.89c-1.54 0-2.84-.24-3.91-.7l14.66-14.64c1.859 1.832 3.453 3.69 6.37 3.69C34.854 38.35 36.429 36.559 38.38 34.65zM56.58 21.35v21.3c0 1.6-.25 2.94-.75 4.02L41.1 31.97l14.74-14.51C56.33 18.52 56.58 19.81 56.58 21.35zM22.91 31.97L8.2 46.62c-.52-1.07-.78-2.39-.78-3.97v-21.3c0-1.56.24-2.88.72-3.94L22.91 31.97zM29.23 32.91c-1.34-1.313-18.42-18.25-18.42-18.25.92-.44 2.01-.66 3.26-.66h35.04c1.59 0 2.92.25 4 .75 0 0-17.571 17.406-18.34 18.16s-1.694 1.43-2.76 1.43C31.471 34.34 30.57 34.223 29.23 32.91z"/></svg>